<svg id="Слой_1" data-name="Слой 1" xmlns="http://www.w3.org/2000/svg" viewBox="0 0 28.55 12.13"><defs><style>.cls-1{opacity:0.2;isolation:isolate;}.cls-2{fill:#f7931a;}.cls-3{fill:#fff;}</style></defs><title>bitcoin</title><path d="M15.74,6.16a.92.92,0,0,1,.87,1,1,1,0,0,1-.38.85,1.75,1.75,0,0,1-1.06.28h-1v-4H15a1.87,1.87,0,0,1,1.06.25.87.87,0,0,1,.37.75.85.85,0,0,1-.2.58A.94.94,0,0,1,15.74,6.16ZM14.69,4.69V6h.5a.76.76,0,0,0,.52-.17.62.62,0,0,0,.19-.48.56.56,0,0,0-.21-.49,1,1,0,0,0-.62-.15Zm.49,3.16a1.09,1.09,0,0,0,.65-.17.63.63,0,0,0,.22-.55q0-.75-.81-.75h-.55V7.85Zm2.47-2.63V8.27h-.52v-3Zm-.26-1.44a.3.3,0,0,1,.24.1.33.33,0,0,1,.1.24.31.31,0,0,1-.34.34.35.35,0,0,1-.25-.09.37.37,0,0,1-.1-.25.37.37,0,0,1,.1-.24A.32.32,0,0,1,17.39,3.78Zm2.47,4.36a1.16,1.16,0,0,1-.65.2.75.75,0,0,1-.57-.21.85.85,0,0,1-.2-.6V5.61H18V5.22h.43v-.7L19,4.45v.77h.68l-.06.39H19V7.52q0,.39.33.39a.5.5,0,0,0,.18,0l.2-.09Zm1.25-3a1.33,1.33,0,0,1,.45.08,1.7,1.7,0,0,1,.39.25l-.24.32a1,1,0,0,0-.27-.17,1.06,1.06,0,0,0-.31,0,.6.6,0,0,0-.53.29,1.73,1.73,0,0,0-.18.9c0,.77.24,1.15.71,1.15a.94.94,0,0,0,.3,0,1.75,1.75,0,0,0,.28-.17L22,8a1.24,1.24,0,0,1-.84.33,1.12,1.12,0,0,1-.92-.4,1.81,1.81,0,0,1-.33-1.17A2.3,2.3,0,0,1,20,5.9a1.3,1.3,0,0,1,.43-.56A1.14,1.14,0,0,1,21.11,5.14Zm2.2,0a1.09,1.09,0,0,1,.91.42,1.82,1.82,0,0,1,.33,1.18,1.89,1.89,0,0,1-.34,1.17,1.07,1.07,0,0,1-.91.43,1.09,1.09,0,0,1-.91-.42,1.86,1.86,0,0,1-.33-1.18,1.85,1.85,0,0,1,.33-1.17A1.09,1.09,0,0,1,23.31,5.14Zm0,.42a.58.58,0,0,0-.52.29,1.72,1.72,0,0,0-.18.89c0,.8.23,1.19.69,1.19s.7-.4.7-1.19a1.79,1.79,0,0,0-.17-.89A.58.58,0,0,0,23.31,5.56Zm2.34-.34V8.27h-.52v-3Zm-.26-1.44a.3.3,0,0,1,.24.1.33.33,0,0,1,.1.24.37.37,0,0,1-.09.25.39.39,0,0,1-.5,0,.37.37,0,0,1-.09-.25.36.36,0,0,1,.09-.24A.32.32,0,0,1,25.39,3.78Zm2.39,1.36a.66.66,0,0,1,.56.25,1,1,0,0,1,.21.66V8.27H28V6.11a.65.65,0,0,0-.1-.42.33.33,0,0,0-.3-.13c-.25,0-.49.18-.69.54V8.27h-.53v-3h.46l0,.45A1,1,0,0,1,27.78,5.14Z"/><path class="cls-1" d="M5.85,12.13A5.86,5.86,0,1,0,0,6.27,5.86,5.86,0,0,0,5.85,12.13Z"/><path class="cls-2" d="M5.85,11.71A5.86,5.86,0,1,0,0,5.85,5.86,5.86,0,0,0,5.85,11.71Z"/><path class="cls-1" d="M4.6,2.51V3.76H3.35V4.6h.47a.34.34,0,0,1,.36.31V7.67c0,.07,0,.27-.18.27H3.35v.84H4.6V10h.84V8.78h.41l0,1.25h.82V8.78c1.07-.08,1.69-.59,1.68-1.46a1.21,1.21,0,0,0-1-1.26c.4,0,.63-.43.63-1A1.18,1.18,0,0,0,6.69,3.76V2.51H5.86V3.76H5.44V2.51ZM5.44,4.6c.84,0,1.25,0,1.25.63s-.41.62-1.25.62Zm0,2.09c1.11,0,1.67-.07,1.67.63s-.56.62-1.67.62Z"/><path class="cls-3" d="M4.6,2.09V3.34H3.35v.84h.47a.34.34,0,0,1,.36.31V7.25c0,.08,0,.27-.18.28H3.35v.83H4.6V9.62h.84V8.36h.41l0,1.26h.82V8.36c1.07-.08,1.69-.58,1.68-1.46a1.21,1.21,0,0,0-1-1.26c.4,0,.63-.43.63-1A1.18,1.18,0,0,0,6.69,3.34V2.09H5.86V3.34H5.44V2.09Zm.84,2.09c.84,0,1.25,0,1.25.63s-.41.63-1.25.63Zm0,2.09c1.11,0,1.67-.07,1.67.63s-.56.63-1.67.63Z"/></svg>